# File created by Blade
# Date/Time:  Tue Jan 27 20:12:02 2015
# Frame Rate: 120.000 fps
#------------------------------------------------------
:FULLY-SPECIFIED
:DEGREES
2802
root 8.306377 32.422073 -4.235206 5.624720 -20.978023 -3.893356
Spine 1.896162 17.838566 -4.596154
Head 25.109360 -8.496407 -1.451160
LeftShoulder -18.706439 3.367443 28.434530
LeftArm -23.262756 -43.588839 -60.053265
LeftForeArm -11.840417 -0.000000 94.791225
LeftHand 17.782270 -0.000000 4.275510
LeftHandThumb1 -26.253704 0.000000 33.147579
RightShoulder -18.712142 -23.687587 -23.164807
RightArm 9.148799 -40.043631 90.755486
RightForeArm -23.377247 -0.000000 102.542888
RightHand 18.853482 0.000000 -0.459323
RightHandThumb1 -24.326973 -0.000000 -32.862282
LeftUpLeg 2.351895 10.064819 -5.877839
LeftLeg -5.644636 -0.000000 0.000000
LeftFoot -17.874015 22.353715 -18.967905
LeftToeBase 23.829531 -0.000000 -0.000000
RightUpLeg 26.332811 -65.612669 -39.374679
RightLeg 95.447655 -0.000000 -0.000000
RightFoot 23.096819 -24.263218 21.890300
RightToeBase 16.803961 -0.000000 -0.000000
2803
root 8.309341 32.427216 -4.234554 5.524594 -21.122783 -3.989073
Spine 2.019345 17.914115 -4.465201
Head 25.144579 -8.461116 -1.432249
LeftShoulder -18.685404 3.392027 28.431292
LeftArm -23.315143 -43.619750 -60.025479
LeftForeArm -11.823657 0.000000 94.761818
LeftHand 17.782864 -0.000000 4.246143
LeftHandThumb1 -26.253704 0.000000 33.147579
RightShoulder -18.742485 -23.656387 -23.135711
RightArm 9.164564 -40.058285 90.734878
RightForeArm -23.415149 -0.000000 102.538800
RightHand 18.830723 0.000000 -0.502003
RightHandThumb1 -24.326973 -0.000000 -32.862282
LeftUpLeg 2.475008 10.033095 -5.778504
LeftLeg -5.599729 -0.000000 0.000000
LeftFoot -17.972240 22.484797 -19.024381
LeftToeBase 23.787846 -0.000000 -0.000000
RightUpLeg 26.019545 -65.829194 -39.436984
RightLeg 94.485960 -0.000000 -0.000000
RightFoot 20.502942 -23.751915 22.403067
RightToeBase 17.263398 -0.000000 -0.000000
2804
root 8.311156 32.434576 -4.235615 5.438411 -21.270479 -4.104967
Spine 2.137809 17.974297 -4.321529
Head 25.176765 -8.397305 -1.404366
LeftShoulder -18.673351 3.423935 28.422052
LeftArm -23.372046 -43.654312 -59.998166
LeftForeArm -11.777899 0.000000 94.749301
LeftHand 17.766948 -0.000000 4.280778
LeftHandThumb1 -26.253704 0.000000 33.147579
RightShoulder -18.771050 -23.723247 -23.067185
RightArm 9.311153 -40.042198 90.636371
RightForeArm -23.416758 -0.000000 102.528420
RightHand 18.868842 -0.000000 -0.401985
RightHandThumb1 -24.326973 -0.000000 -32.862282
LeftUpLeg 2.578722 9.975797 -5.662272
LeftLeg -5.528610 -0.000000 0.000000
LeftFoot -18.110239 22.649015 -19.087507
LeftToeBase 23.859624 -0.000000 -0.000000
RightUpLeg 25.684287 -66.051527 -39.457820
RightLeg 93.463073 -0.000000 -0.000000
RightFoot 17.593824 -23.134568 22.928977
RightToeBase 17.494593 -0.000000 -0.000000
2805
root 8.315626 32.440437 -4.238418 5.355550 -21.447439 -4.246699
Spine 2.272742 18.040931 -4.132623
Head 25.199931 -8.325453 -1.396945
LeftShoulder -18.661553 3.482600 28.399177
LeftArm -23.435672 -43.699342 -59.993425
LeftForeArm -11.707393 0.000000 94.757106
LeftHand 17.719162 0.000000 4.387310
LeftHandThumb1 -26.253704 0.000000 33.147579
RightShoulder -18.740799 -23.638764 -23.100940
RightArm 9.253193 -40.013751 90.671350
RightForeArm -23.443110 0.000000 102.517498
RightHand 18.926442 0.000000 -0.380220
RightHandThumb1 -24.326973 -0.000000 -32.862282
LeftUpLeg 2.763710 9.655695 -5.519351
LeftLeg -5.618123 -0.000000 0.000000
LeftFoot -18.279894 23.060900 -19.305846
LeftToeBase 23.731967 -0.000000 -0.000000
RightUpLeg 25.170848 -66.276187 -39.329738
RightLeg 92.395728 -0.000000 -0.000000
RightFoot 14.565725 -22.571435 23.377329
RightToeBase 17.907266 -0.000000 -0.000000
2806
root 8.318657 32.449370 -4.241990 5.270775 -21.595985 -4.415772
Spine 2.431165 18.056675 -3.916644
Head 25.233466 -8.168781 -1.369907
LeftShoulder -18.685675 3.532635 28.383464
LeftArm -23.499189 -43.736856 -60.006596
LeftForeArm -11.656820 -0.000000 94.769082
LeftHand 17.711507 -0.000000 4.422559
LeftHandThumb1 -26.253704 0.000000 33.147579
RightShoulder -18.704050 -23.557036 -23.116915
RightArm 9.202281 -39.963114 90.713438
RightForeArm -23.449183 -0.000000 102.494461
RightHand 18.972841 0.000000 -0.377935
RightHandThumb1 -24.326973 -0.000000 -32.862282
LeftUpLeg 2.879165 9.661013 -5.357759
LeftLeg -5.557698 -0.000000 0.000000
LeftFoot -18.387676 23.215600 -19.325707
LeftToeBase 23.704269 -0.000000 -0.000000
RightUpLeg 24.782279 -66.563967 -39.309913
RightLeg 91.260841 -0.000000 -0.000000
RightFoot 11.467570 -22.056196 23.801879
RightToeBase 19.719819 -0.000000 -0.000000
2807
root 8.318706 32.459820 -4.240239 5.138892 -21.793568 -4.567127
Spine 2.622204 18.120589 -3.713059
Head 25.286173 -8.062887 -1.353872
LeftShoulder -18.712054 3.597935 28.392477
LeftArm -23.502834 -43.805041 -60.089145
LeftForeArm -11.564244 -0.000000 94.730298
LeftHand 17.704397 -0.000000 4.344549
LeftHandThumb1 -26.253704 0.000000 33.147579
RightShoulder -18.673022 -23.510116 -23.116248
RightArm 9.178525 -39.922018 90.741197
RightForeArm -23.492518 -0.000000 102.487252
RightHand 18.962781 -0.000000 -0.373105
RightHandThumb1 -24.326973 -0.000000 -32.862282
LeftUpLeg 3.032373 9.930558 -5.216386
LeftLeg -5.465084 -0.000000 0.000000
LeftFoot -18.460439 23.227321 -19.281484
LeftToeBase 23.732703 -0.000000 -0.000000
RightUpLeg 24.437508 -66.777311 -39.375262
RightLeg 90.069338 -0.000000 -0.000000
RightFoot 8.231720 -21.796883 24.838626
RightToeBase 19.816290 -0.000000 -0.000000
2808
root 8.321824 32.470771 -4.241104 5.045002 -21.969775 -4.729995
Spine 2.778964 18.122763 -3.494258
Head 25.365251 -7.914813 -1.361765
LeftShoulder -18.765975 3.573801 28.323180
LeftArm -23.631941 -43.759014 -59.967864
LeftForeArm -11.536190 -0.000000 94.762234
LeftHand 17.668806 -0.000000 4.421447
LeftHandThumb1 -26.253704 0.000000 33.147579
RightShoulder -18.613808 -23.509341 -23.117594
RightArm 9.204461 -39.867611 90.739887
RightForeArm -23.532687 0.000000 102.504164
RightHand 18.897615 -0.000000 -0.396608
RightHandThumb1 -24.326973 -0.000000 -32.862282
LeftUpLeg 3.136263 10.207855 -5.070406
LeftLeg -5.357157 -0.000000 0.000000
LeftFoot -18.494537 23.224673 -19.162431
LeftToeBase 23.717506 -0.000000 -0.000000
RightUpLeg 23.990599 -67.041697 -39.386670
RightLeg 88.867629 -0.000000 -0.000000
RightFoot 5.378636 -21.664184 25.296393
RightToeBase 18.780422 -0.000000 -0.000000
2809
root 8.327559 32.481725 -4.241678 4.960744 -22.129378 -4.896315
Spine 2.919385 18.123924 -3.265114
Head 25.485336 -7.783158 -1.372266
LeftShoulder -18.800308 3.571555 28.271464
LeftArm -23.734226 -43.704408 -59.910183
LeftForeArm -11.474253 -0.000000 94.792949
LeftHand 17.645252 0.000000 4.621145
LeftHandThumb1 -26.253704 0.000000 33.147579
RightShoulder -18.587923 -23.448062 -23.139144
RightArm 9.157212 -39.828817 90.771553
RightForeArm -23.484718 -0.000000 102.505774
RightHand 18.876526 -0.000000 -0.406275
RightHandThumb1 -24.326973 -0.000000 -32.862282
LeftUpLeg 3.238328 10.496425 -4.924452
LeftLeg -5.268231 -0.000000 0.000000
LeftFoot -18.505848 23.195896 -19.053833
LeftToeBase 23.663162 -0.000000 -0.000000
RightUpLeg 23.576115 -67.321393 -39.466590
RightLeg 87.634650 -0.000000 -0.000000
RightFoot 2.854511 -21.681504 25.595657
RightToeBase 18.513168 -0.000000 -0.000000
2810
root 8.333088 32.492909 -4.242795 4.906489 -22.283795 -5.064394
Spine 3.025106 18.155204 -3.052623
Head 25.606595 -7.703578 -1.356916
LeftShoulder -18.876315 3.584006 28.244267
LeftArm -23.658310 -43.712053 -60.024855
LeftForeArm -11.263880 -0.000000 94.803693
LeftHand 17.596644 -0.000000 4.553379
LeftHandThumb1 -26.253704 0.000000 33.147579
RightShoulder -18.587339 -23.438028 -23.129578
RightArm 9.104675 -39.761989 90.811438
RightForeArm -23.518864 -0.000000 102.516056
RightHand 18.974610 -0.000000 -0.401923
RightHandThumb1 -24.326973 -0.000000 -32.862282
LeftUpLeg 3.329659 10.743184 -4.777843
LeftLeg -5.212579 -0.000000 0.000000
LeftFoot -18.511588 23.236655 -18.927082
LeftToeBase 23.651261 -0.000000 -0.000000
RightUpLeg 23.032719 -67.574292 -39.418268
RightLeg 86.385197 -0.000000 -0.000000
RightFoot 0.603464 -21.747333 26.189238
RightToeBase 17.883802 -0.000000 -0.000000
2811
root 8.338791 32.502296 -4.240266 4.829601 -22.406344 -5.226971
Spine 3.147163 18.169885 -2.832614
Head 25.744725 -7.632931 -1.345599
LeftShoulder -18.909761 3.615982 28.215594
LeftArm -23.585892 -43.690319 -60.131618
LeftForeArm -11.046954 -0.000000 94.818689
LeftHand 17.491765 -0.000000 4.615653
LeftHandThumb1 -26.253704 0.000000 33.147579
RightShoulder -18.614199 -23.519193 -23.098284
RightArm 9.147264 -39.707194 90.795433
RightForeArm -23.519287 0.000000 102.536819
RightHand 18.993751 -0.000000 -0.439785
RightHandThumb1 -24.326973 -0.000000 -32.862282
LeftUpLeg 3.465186 10.933994 -4.629547
LeftLeg -5.192748 -0.000000 0.000000
LeftFoot -18.532223 23.242663 -18.857027
LeftToeBase 23.681099 -0.000000 -0.000000
RightUpLeg 22.777792 -67.848045 -39.649748
RightLeg 85.106741 -0.000000 -0.000000
RightFoot -1.521255 -21.526421 26.565868
RightToeBase 18.141139 -0.000000 -0.000000
